<svg width="40" height="40" viewBox="0 0 40 40" fill="none" xmlns="http://www.w3.org/2000/svg">
<rect width="40" height="40" rx="4" fill="#0571FF"/>
<path d="M15.5215 27.2109C11.9619 27.2109 9.71191 24.6973 9.71191 20.6543C9.71191 16.6377 11.9795 14.1064 15.5215 14.1064C18.3955 14.1064 20.5664 15.873 20.9004 18.5186H18.9492C18.5977 16.8926 17.2441 15.8291 15.5215 15.8291C13.2188 15.8291 11.7246 17.7188 11.7246 20.6543C11.7246 23.6162 13.2012 25.4883 15.5303 25.4883C17.2969 25.4883 18.5537 24.583 18.9492 23.0537H20.9092C20.4258 25.6729 18.4395 27.2109 15.5215 27.2109ZM27.2549 27H25.2861V16.0137H21.4014V14.3174H31.1309V16.0137H27.2549V27Z" fill="white"/>
</svg>
