<svg width="40" height="40" viewBox="0 0 40 40" fill="none" xmlns="http://www.w3.org/2000/svg">
<rect width="40" height="40" rx="4" fill="#00B20F"/>
<path d="M10.1689 14.3174H14.6426C18.4131 14.3174 20.6455 16.6377 20.6455 20.6367C20.6455 24.6445 18.4219 27 14.6426 27H10.1689V14.3174ZM12.1377 16.0137V25.2949H14.458C17.1475 25.2949 18.6328 23.6514 18.6328 20.6543C18.6328 17.666 17.1387 16.0137 14.458 16.0137H12.1377ZM21.9639 23.4668H23.9062C24.0469 24.7236 25.2686 25.5498 26.9385 25.5498C28.5381 25.5498 29.6895 24.7236 29.6895 23.5898C29.6895 22.6055 28.9951 22.0166 27.3516 21.6123L25.708 21.2168C23.3789 20.6543 22.2979 19.5645 22.2979 17.7979C22.2979 15.6094 24.2051 14.1064 26.9121 14.1064C29.5928 14.1064 31.4297 15.6094 31.4912 17.7979H29.5752C29.4609 16.5322 28.415 15.7676 26.8857 15.7676C25.3564 15.7676 24.3105 16.541 24.3105 17.666C24.3105 18.5625 24.9785 19.0898 26.6133 19.4941L28.0107 19.8369C30.6123 20.4521 31.6934 21.498 31.6934 23.3525C31.6934 25.7256 29.8037 27.2109 26.7979 27.2109C23.9854 27.2109 22.0869 25.7607 21.9639 23.4668Z" fill="white"/>
</svg>
