<svg width="40" height="40" viewBox="0 0 40 40" fill="none" xmlns="http://www.w3.org/2000/svg">
<rect width="40" height="40" rx="4" fill="#B2007A"/>
<path d="M18.2197 25.2949V27H10.1689V14.3174H18.2197V16.0137H12.1377V19.7227H17.8945V21.3574H12.1377V25.2949H18.2197ZM19.6787 23.4668H21.6211C21.7617 24.7236 22.9834 25.5498 24.6533 25.5498C26.2529 25.5498 27.4043 24.7236 27.4043 23.5898C27.4043 22.6055 26.71 22.0166 25.0664 21.6123L23.4229 21.2168C21.0938 20.6543 20.0127 19.5645 20.0127 17.7979C20.0127 15.6094 21.9199 14.1064 24.627 14.1064C27.3076 14.1064 29.1445 15.6094 29.2061 17.7979H27.29C27.1758 16.5322 26.1299 15.7676 24.6006 15.7676C23.0713 15.7676 22.0254 16.541 22.0254 17.666C22.0254 18.5625 22.6934 19.0898 24.3281 19.4941L25.7256 19.8369C28.3271 20.4521 29.4082 21.498 29.4082 23.3525C29.4082 25.7256 27.5186 27.2109 24.5127 27.2109C21.7002 27.2109 19.8018 25.7607 19.6787 23.4668Z" fill="white"/>
</svg>
