<svg width="40" height="40" viewBox="0 0 40 40" fill="none" xmlns="http://www.w3.org/2000/svg">
<rect width="40" height="40" rx="4" fill="#FFAA00"/>
<path d="M15.9082 27H13.7549L9.22852 14.3174H11.3643L14.8184 24.7852H14.8711L18.334 14.3174H20.4346L15.9082 27ZM21.085 23.4668H23.0273C23.168 24.7236 24.3896 25.5498 26.0596 25.5498C27.6592 25.5498 28.8105 24.7236 28.8105 23.5898C28.8105 22.6055 28.1162 22.0166 26.4727 21.6123L24.8291 21.2168C22.5 20.6543 21.4189 19.5645 21.4189 17.7979C21.4189 15.6094 23.3262 14.1064 26.0332 14.1064C28.7139 14.1064 30.5508 15.6094 30.6123 17.7979H28.6963C28.582 16.5322 27.5361 15.7676 26.0068 15.7676C24.4775 15.7676 23.4316 16.541 23.4316 17.666C23.4316 18.5625 24.0996 19.0898 25.7344 19.4941L27.1318 19.8369C29.7334 20.4521 30.8145 21.498 30.8145 23.3525C30.8145 25.7256 28.9248 27.2109 25.9189 27.2109C23.1064 27.2109 21.208 25.7607 21.085 23.4668Z" fill="white"/>
</svg>
